<mxfile host="app.diagrams.net" modified="2022-04-08T22:26:01.946Z" agent="5.0 (Macintosh; Intel Mac OS X 10_15_7) AppleWebKit/537.36 (KHTML, like Gecko) Chrome/98.0.4758.80 Safari/537.36" etag="ixylODizhvK_7tz2Kwd4" version="17.4.1" type="github" pages="2">
  <diagram id="31b32b95-0358-9bc7-6ba0-a27c054ed1a7" name="Page-1">
    <mxGraphModel dx="3199" dy="1478" grid="1" gridSize="10" guides="1" tooltips="1" connect="1" arrows="1" fold="1" page="1" pageScale="1" pageWidth="827" pageHeight="1169" background="none" math="0" shadow="0">
      <root>
        <mxCell id="0" />
        <mxCell id="1" parent="0" />
        <mxCell id="Bg8B_nmlzmfOJwWbH1iY-153" value="" style="group" vertex="1" connectable="0" parent="1">
          <mxGeometry x="550" y="330" width="120" height="430" as="geometry" />
        </mxCell>
        <mxCell id="Bg8B_nmlzmfOJwWbH1iY-151" value="" style="shape=process;whiteSpace=wrap;html=1;backgroundOutline=1;fontSize=16;strokeColor=#009900;strokeWidth=4;fillColor=#f5f5f5;gradientDirection=radial;fontColor=#333333;" vertex="1" parent="Bg8B_nmlzmfOJwWbH1iY-153">
          <mxGeometry width="120" height="430" as="geometry" />
        </mxCell>
        <mxCell id="Bg8B_nmlzmfOJwWbH1iY-133" value="Active" style="outlineConnect=0;dashed=0;verticalLabelPosition=bottom;verticalAlign=top;align=center;html=1;shape=mxgraph.aws3.classic_load_balancer;fillColor=#F58534;gradientColor=none;strokeColor=#513DFF;strokeWidth=4;" vertex="1" parent="Bg8B_nmlzmfOJwWbH1iY-153">
          <mxGeometry x="25.5" y="60" width="69" height="72" as="geometry" />
        </mxCell>
        <mxCell id="Bg8B_nmlzmfOJwWbH1iY-135" value="Backup" style="outlineConnect=0;dashed=0;verticalLabelPosition=bottom;verticalAlign=top;align=center;html=1;shape=mxgraph.aws3.classic_load_balancer;fillColor=#F58534;gradientColor=#ffffff;strokeColor=#513DFF;strokeWidth=4;gradientDirection=radial;" vertex="1" parent="Bg8B_nmlzmfOJwWbH1iY-153">
          <mxGeometry x="25.5" y="290" width="69" height="72" as="geometry" />
        </mxCell>
        <mxCell id="Bg8B_nmlzmfOJwWbH1iY-136" value="&lt;font style=&quot;font-size: 16px&quot;&gt;Load &lt;br&gt;Balancer&#39;&lt;br&gt;cluster&lt;/font&gt;" style="text;html=1;align=center;verticalAlign=middle;resizable=0;points=[];autosize=1;strokeColor=none;fillColor=none;" vertex="1" parent="Bg8B_nmlzmfOJwWbH1iY-153">
          <mxGeometry x="20" y="190" width="80" height="50" as="geometry" />
        </mxCell>
        <mxCell id="Bg8B_nmlzmfOJwWbH1iY-169" value="" style="group" vertex="1" connectable="0" parent="1">
          <mxGeometry x="294" y="280" width="120" height="530" as="geometry" />
        </mxCell>
        <mxCell id="Bg8B_nmlzmfOJwWbH1iY-127" value="" style="rounded=1;whiteSpace=wrap;html=1;fontSize=16;strokeColor=#d6b656;strokeWidth=4;fillColor=#fff2cc;gradientColor=#ffffff;gradientDirection=radial;" vertex="1" parent="Bg8B_nmlzmfOJwWbH1iY-169">
          <mxGeometry width="120" height="530" as="geometry" />
        </mxCell>
        <mxCell id="Bg8B_nmlzmfOJwWbH1iY-124" value="" style="aspect=fixed;perimeter=ellipsePerimeter;html=1;align=center;shadow=0;dashed=0;spacingTop=3;image;image=img/lib/active_directory/web_server.svg;fontSize=16;strokeColor=#513DFF;strokeWidth=4;fillColor=none;" vertex="1" parent="Bg8B_nmlzmfOJwWbH1iY-169">
          <mxGeometry x="26" y="70" width="88" height="110" as="geometry" />
        </mxCell>
        <mxCell id="Bg8B_nmlzmfOJwWbH1iY-125" value="" style="aspect=fixed;perimeter=ellipsePerimeter;html=1;align=center;shadow=0;dashed=0;spacingTop=3;image;image=img/lib/active_directory/web_server.svg;fontSize=16;strokeColor=#513DFF;strokeWidth=4;fillColor=none;" vertex="1" parent="Bg8B_nmlzmfOJwWbH1iY-169">
          <mxGeometry x="26" y="329" width="88" height="110" as="geometry" />
        </mxCell>
        <mxCell id="Bg8B_nmlzmfOJwWbH1iY-128" value="Web &lt;br&gt;Servers" style="text;html=1;align=center;verticalAlign=middle;resizable=0;points=[];autosize=1;strokeColor=none;fillColor=none;fontSize=16;" vertex="1" parent="Bg8B_nmlzmfOJwWbH1iY-169">
          <mxGeometry x="25" y="240" width="70" height="40" as="geometry" />
        </mxCell>
        <mxCell id="Bg8B_nmlzmfOJwWbH1iY-154" value="" style="group" vertex="1" connectable="0" parent="1">
          <mxGeometry x="60" y="320" width="120" height="430" as="geometry" />
        </mxCell>
        <mxCell id="Bg8B_nmlzmfOJwWbH1iY-155" value="" style="shape=process;whiteSpace=wrap;html=1;backgroundOutline=1;fontSize=16;strokeColor=#FF9933;strokeWidth=4;fillColor=#f5f5f5;gradientDirection=radial;fontColor=#333333;" vertex="1" parent="Bg8B_nmlzmfOJwWbH1iY-154">
          <mxGeometry width="120" height="430" as="geometry" />
        </mxCell>
        <mxCell id="Bg8B_nmlzmfOJwWbH1iY-156" value="Active" style="outlineConnect=0;dashed=0;verticalLabelPosition=bottom;verticalAlign=top;align=center;html=1;shape=mxgraph.aws3.classic_load_balancer;fillColor=#F58534;gradientColor=none;strokeColor=#513DFF;strokeWidth=4;" vertex="1" parent="Bg8B_nmlzmfOJwWbH1iY-154">
          <mxGeometry x="25.5" y="60" width="69" height="72" as="geometry" />
        </mxCell>
        <mxCell id="Bg8B_nmlzmfOJwWbH1iY-157" value="Backup" style="outlineConnect=0;dashed=0;verticalLabelPosition=bottom;verticalAlign=top;align=center;html=1;shape=mxgraph.aws3.classic_load_balancer;fillColor=#F58534;gradientColor=#ffffff;strokeColor=#513DFF;strokeWidth=4;gradientDirection=radial;" vertex="1" parent="Bg8B_nmlzmfOJwWbH1iY-154">
          <mxGeometry x="25.5" y="290" width="69" height="72" as="geometry" />
        </mxCell>
        <mxCell id="Bg8B_nmlzmfOJwWbH1iY-158" value="&lt;font style=&quot;font-size: 16px&quot;&gt;Load &lt;br&gt;Balancer&#39;&lt;br&gt;cluster&lt;/font&gt;" style="text;html=1;align=center;verticalAlign=middle;resizable=0;points=[];autosize=1;strokeColor=none;fillColor=none;" vertex="1" parent="Bg8B_nmlzmfOJwWbH1iY-154">
          <mxGeometry x="20" y="190" width="80" height="50" as="geometry" />
        </mxCell>
        <mxCell id="Bg8B_nmlzmfOJwWbH1iY-168" value="" style="group" vertex="1" connectable="0" parent="1">
          <mxGeometry x="810" y="280" width="120" height="530" as="geometry" />
        </mxCell>
        <mxCell id="Bg8B_nmlzmfOJwWbH1iY-150" value="" style="rounded=1;whiteSpace=wrap;html=1;fontSize=16;strokeColor=#82b366;strokeWidth=4;fillColor=#d5e8d4;gradientDirection=radial;gradientColor=#ffffff;" vertex="1" parent="Bg8B_nmlzmfOJwWbH1iY-168">
          <mxGeometry width="120" height="530" as="geometry" />
        </mxCell>
        <mxCell id="Bg8B_nmlzmfOJwWbH1iY-146" value="" style="aspect=fixed;perimeter=ellipsePerimeter;html=1;align=center;shadow=0;dashed=0;fontColor=#4277BB;labelBackgroundColor=#ffffff;fontSize=12;spacingTop=3;image;image=img/lib/ibm/applications/application_logic.svg;strokeColor=#513DFF;strokeWidth=4;fillColor=none;gradientColor=#ffffff;gradientDirection=radial;" vertex="1" parent="Bg8B_nmlzmfOJwWbH1iY-168">
          <mxGeometry x="17" y="10" width="80" height="80" as="geometry" />
        </mxCell>
        <mxCell id="Bg8B_nmlzmfOJwWbH1iY-147" value="" style="aspect=fixed;perimeter=ellipsePerimeter;html=1;align=center;shadow=0;dashed=0;fontColor=#4277BB;labelBackgroundColor=#ffffff;fontSize=12;spacingTop=3;image;image=img/lib/ibm/applications/application_logic.svg;strokeColor=#513DFF;strokeWidth=4;fillColor=none;gradientColor=#ffffff;gradientDirection=radial;" vertex="1" parent="Bg8B_nmlzmfOJwWbH1iY-168">
          <mxGeometry x="17" y="215" width="80" height="80" as="geometry" />
        </mxCell>
        <mxCell id="Bg8B_nmlzmfOJwWbH1iY-148" value="" style="aspect=fixed;perimeter=ellipsePerimeter;html=1;align=center;shadow=0;dashed=0;fontColor=#4277BB;labelBackgroundColor=#ffffff;fontSize=12;spacingTop=3;image;image=img/lib/ibm/applications/application_logic.svg;strokeColor=#513DFF;strokeWidth=4;fillColor=none;gradientColor=#ffffff;gradientDirection=radial;" vertex="1" parent="Bg8B_nmlzmfOJwWbH1iY-168">
          <mxGeometry x="17" y="420" width="80" height="80" as="geometry" />
        </mxCell>
        <mxCell id="Bg8B_nmlzmfOJwWbH1iY-149" value="Micro &lt;br&gt;Services" style="text;html=1;align=center;verticalAlign=middle;resizable=0;points=[];autosize=1;strokeColor=none;fillColor=none;fontSize=16;" vertex="1" parent="Bg8B_nmlzmfOJwWbH1iY-168">
          <mxGeometry x="20" y="130" width="80" height="40" as="geometry" />
        </mxCell>
        <mxCell id="Bg8B_nmlzmfOJwWbH1iY-144" style="edgeStyle=orthogonalEdgeStyle;rounded=0;orthogonalLoop=1;jettySize=auto;html=1;exitX=1;exitY=0.75;exitDx=0;exitDy=0;entryX=0;entryY=0.75;entryDx=0;entryDy=0;fontSize=16;" edge="1" parent="1" source="Bg8B_nmlzmfOJwWbH1iY-127">
          <mxGeometry relative="1" as="geometry">
            <mxPoint x="550" y="677.5" as="targetPoint" />
          </mxGeometry>
        </mxCell>
        <mxCell id="Bg8B_nmlzmfOJwWbH1iY-145" style="edgeStyle=orthogonalEdgeStyle;rounded=0;orthogonalLoop=1;jettySize=auto;html=1;exitX=1;exitY=0.25;exitDx=0;exitDy=0;entryX=0;entryY=0.25;entryDx=0;entryDy=0;fontSize=16;" edge="1" parent="1" source="Bg8B_nmlzmfOJwWbH1iY-127">
          <mxGeometry relative="1" as="geometry">
            <mxPoint x="550" y="412.5" as="targetPoint" />
          </mxGeometry>
        </mxCell>
        <mxCell id="Bg8B_nmlzmfOJwWbH1iY-108" value="" style="group" vertex="1" connectable="0" parent="1">
          <mxGeometry x="-340" y="60" width="363" height="1020" as="geometry" />
        </mxCell>
        <mxCell id="Bg8B_nmlzmfOJwWbH1iY-96" value="" style="ellipse;shape=cloud;whiteSpace=wrap;html=1;fillColor=none;strokeColor=#513DFF;strokeWidth=4;" vertex="1" parent="Bg8B_nmlzmfOJwWbH1iY-108">
          <mxGeometry x="133" y="350" width="230" height="210" as="geometry" />
        </mxCell>
        <mxCell id="Bg8B_nmlzmfOJwWbH1iY-95" value="" style="shape=step;perimeter=stepPerimeter;whiteSpace=wrap;html=1;fixedSize=1;fillColor=#f8cecc;strokeColor=#b85450;" vertex="1" parent="Bg8B_nmlzmfOJwWbH1iY-108">
          <mxGeometry x="283" width="40" height="1020" as="geometry" />
        </mxCell>
        <mxCell id="Bg8B_nmlzmfOJwWbH1iY-105" style="edgeStyle=orthogonalEdgeStyle;rounded=0;orthogonalLoop=1;jettySize=auto;html=1;exitX=1;exitY=0.5;exitDx=0;exitDy=0;entryX=0.25;entryY=0.25;entryDx=0;entryDy=0;entryPerimeter=0;" edge="1" parent="Bg8B_nmlzmfOJwWbH1iY-108" source="Bg8B_nmlzmfOJwWbH1iY-97" target="Bg8B_nmlzmfOJwWbH1iY-96">
          <mxGeometry relative="1" as="geometry" />
        </mxCell>
        <mxCell id="Bg8B_nmlzmfOJwWbH1iY-97" value="" style="aspect=fixed;perimeter=ellipsePerimeter;html=1;align=center;shadow=0;dashed=0;fontColor=#4277BB;labelBackgroundColor=#ffffff;fontSize=12;spacingTop=3;image;image=img/lib/ibm/users/device.svg;" vertex="1" parent="Bg8B_nmlzmfOJwWbH1iY-108">
          <mxGeometry y="333" width="60" height="60" as="geometry" />
        </mxCell>
        <mxCell id="Bg8B_nmlzmfOJwWbH1iY-98" value="" style="aspect=fixed;perimeter=ellipsePerimeter;html=1;align=center;shadow=0;dashed=0;fontColor=#4277BB;labelBackgroundColor=#ffffff;fontSize=12;spacingTop=3;image;image=img/lib/ibm/users/integrated_digital_experiences.svg;" vertex="1" parent="Bg8B_nmlzmfOJwWbH1iY-108">
          <mxGeometry y="507" width="60" height="60" as="geometry" />
        </mxCell>
        <mxCell id="Bg8B_nmlzmfOJwWbH1iY-106" style="edgeStyle=orthogonalEdgeStyle;rounded=0;orthogonalLoop=1;jettySize=auto;html=1;exitX=0.13;exitY=0.77;exitDx=0;exitDy=0;exitPerimeter=0;entryX=1;entryY=0.25;entryDx=0;entryDy=0;" edge="1" parent="Bg8B_nmlzmfOJwWbH1iY-108" source="Bg8B_nmlzmfOJwWbH1iY-96" target="Bg8B_nmlzmfOJwWbH1iY-98">
          <mxGeometry relative="1" as="geometry" />
        </mxCell>
        <mxCell id="Bg8B_nmlzmfOJwWbH1iY-107" style="edgeStyle=orthogonalEdgeStyle;rounded=0;orthogonalLoop=1;jettySize=auto;html=1;exitX=1;exitY=0.25;exitDx=0;exitDy=0;entryX=0.55;entryY=0.95;entryDx=0;entryDy=0;entryPerimeter=0;" edge="1" parent="Bg8B_nmlzmfOJwWbH1iY-108" source="Bg8B_nmlzmfOJwWbH1iY-99" target="Bg8B_nmlzmfOJwWbH1iY-96">
          <mxGeometry relative="1" as="geometry" />
        </mxCell>
        <mxCell id="Bg8B_nmlzmfOJwWbH1iY-99" value="" style="aspect=fixed;perimeter=ellipsePerimeter;html=1;align=center;shadow=0;dashed=0;fontColor=#4277BB;labelBackgroundColor=#ffffff;fontSize=12;spacingTop=3;image;image=img/lib/ibm/users/user.svg;" vertex="1" parent="Bg8B_nmlzmfOJwWbH1iY-108">
          <mxGeometry y="680" width="60" height="60" as="geometry" />
        </mxCell>
        <mxCell id="Bg8B_nmlzmfOJwWbH1iY-100" value="" style="aspect=fixed;perimeter=ellipsePerimeter;html=1;align=center;shadow=0;dashed=0;fontColor=#4277BB;labelBackgroundColor=#ffffff;fontSize=12;spacingTop=3;image;image=img/lib/ibm/users/browser.svg;" vertex="1" parent="Bg8B_nmlzmfOJwWbH1iY-108">
          <mxGeometry y="160" width="60" height="60" as="geometry" />
        </mxCell>
        <mxCell id="Bg8B_nmlzmfOJwWbH1iY-104" style="edgeStyle=orthogonalEdgeStyle;rounded=0;orthogonalLoop=1;jettySize=auto;html=1;exitX=0.4;exitY=0.1;exitDx=0;exitDy=0;exitPerimeter=0;entryX=1;entryY=0.5;entryDx=0;entryDy=0;" edge="1" parent="Bg8B_nmlzmfOJwWbH1iY-108" source="Bg8B_nmlzmfOJwWbH1iY-96" target="Bg8B_nmlzmfOJwWbH1iY-100">
          <mxGeometry relative="1" as="geometry">
            <Array as="points">
              <mxPoint x="225" y="190" />
            </Array>
          </mxGeometry>
        </mxCell>
        <mxCell id="Bg8B_nmlzmfOJwWbH1iY-129" style="edgeStyle=orthogonalEdgeStyle;rounded=0;orthogonalLoop=1;jettySize=auto;html=1;entryX=0;entryY=0.5;entryDx=0;entryDy=0;fontSize=16;exitX=1;exitY=0.25;exitDx=0;exitDy=0;" edge="1" parent="1" source="Bg8B_nmlzmfOJwWbH1iY-155" target="Bg8B_nmlzmfOJwWbH1iY-124">
          <mxGeometry relative="1" as="geometry">
            <mxPoint x="200" y="412.5" as="sourcePoint" />
          </mxGeometry>
        </mxCell>
        <mxCell id="Bg8B_nmlzmfOJwWbH1iY-130" style="edgeStyle=orthogonalEdgeStyle;rounded=0;orthogonalLoop=1;jettySize=auto;html=1;entryX=0;entryY=0.5;entryDx=0;entryDy=0;fontSize=16;exitX=1;exitY=0.75;exitDx=0;exitDy=0;" edge="1" parent="1" source="Bg8B_nmlzmfOJwWbH1iY-155" target="Bg8B_nmlzmfOJwWbH1iY-125">
          <mxGeometry relative="1" as="geometry">
            <mxPoint x="200" y="740" as="sourcePoint" />
          </mxGeometry>
        </mxCell>
        <mxCell id="Bg8B_nmlzmfOJwWbH1iY-159" style="edgeStyle=orthogonalEdgeStyle;rounded=0;orthogonalLoop=1;jettySize=auto;html=1;exitX=0;exitY=0;exitDx=0;exitDy=0;entryX=0.88;entryY=0.25;entryDx=0;entryDy=0;entryPerimeter=0;fontSize=16;" edge="1" parent="1" source="Bg8B_nmlzmfOJwWbH1iY-155" target="Bg8B_nmlzmfOJwWbH1iY-96">
          <mxGeometry relative="1" as="geometry">
            <Array as="points">
              <mxPoint x="60" y="360" />
              <mxPoint x="40" y="360" />
              <mxPoint x="40" y="463" />
            </Array>
          </mxGeometry>
        </mxCell>
        <mxCell id="Bg8B_nmlzmfOJwWbH1iY-160" style="edgeStyle=orthogonalEdgeStyle;rounded=0;orthogonalLoop=1;jettySize=auto;html=1;exitX=0;exitY=0.5;exitDx=0;exitDy=0;entryX=0.96;entryY=0.7;entryDx=0;entryDy=0;entryPerimeter=0;fontSize=16;" edge="1" parent="1" source="Bg8B_nmlzmfOJwWbH1iY-155" target="Bg8B_nmlzmfOJwWbH1iY-96">
          <mxGeometry relative="1" as="geometry" />
        </mxCell>
        <mxCell id="Bg8B_nmlzmfOJwWbH1iY-161" style="edgeStyle=orthogonalEdgeStyle;rounded=0;orthogonalLoop=1;jettySize=auto;html=1;exitX=0;exitY=0.75;exitDx=0;exitDy=0;entryX=0.661;entryY=0.919;entryDx=0;entryDy=0;entryPerimeter=0;fontSize=16;" edge="1" parent="1" source="Bg8B_nmlzmfOJwWbH1iY-155" target="Bg8B_nmlzmfOJwWbH1iY-96">
          <mxGeometry relative="1" as="geometry" />
        </mxCell>
        <mxCell id="Bg8B_nmlzmfOJwWbH1iY-165" style="edgeStyle=orthogonalEdgeStyle;rounded=0;orthogonalLoop=1;jettySize=auto;html=1;exitX=1;exitY=0.75;exitDx=0;exitDy=0;entryX=0;entryY=0.5;entryDx=0;entryDy=0;fontSize=16;" edge="1" parent="1" source="Bg8B_nmlzmfOJwWbH1iY-151" target="Bg8B_nmlzmfOJwWbH1iY-148">
          <mxGeometry relative="1" as="geometry" />
        </mxCell>
        <mxCell id="Bg8B_nmlzmfOJwWbH1iY-166" style="edgeStyle=orthogonalEdgeStyle;rounded=0;orthogonalLoop=1;jettySize=auto;html=1;exitX=1;exitY=0.5;exitDx=0;exitDy=0;entryX=0;entryY=0.5;entryDx=0;entryDy=0;fontSize=16;" edge="1" parent="1" source="Bg8B_nmlzmfOJwWbH1iY-151" target="Bg8B_nmlzmfOJwWbH1iY-147">
          <mxGeometry relative="1" as="geometry" />
        </mxCell>
        <mxCell id="Bg8B_nmlzmfOJwWbH1iY-167" style="edgeStyle=orthogonalEdgeStyle;rounded=0;orthogonalLoop=1;jettySize=auto;html=1;exitX=1;exitY=0.25;exitDx=0;exitDy=0;entryX=0;entryY=0.5;entryDx=0;entryDy=0;fontSize=16;" edge="1" parent="1" source="Bg8B_nmlzmfOJwWbH1iY-151" target="Bg8B_nmlzmfOJwWbH1iY-146">
          <mxGeometry relative="1" as="geometry" />
        </mxCell>
      </root>
    </mxGraphModel>
  </diagram>
  <diagram id="idBs2UERAOV6qkiG88l8" name="CQRS">
    <mxGraphModel dx="1318" dy="821" grid="1" gridSize="10" guides="1" tooltips="1" connect="1" arrows="1" fold="1" page="1" pageScale="1" pageWidth="500" pageHeight="400" math="0" shadow="0">
      <root>
        <mxCell id="0" />
        <mxCell id="1" parent="0" />
        <mxCell id="PxqCbL-2LZfQ2RbIi71h-80" value="CQRS Group Service" style="fontStyle=0;verticalAlign=top;align=center;spacingTop=-2;fillColor=none;rounded=0;whiteSpace=wrap;html=1;strokeColor=#00882B;strokeWidth=2;dashed=1;container=1;collapsible=0;expand=0;recursiveResize=0;fontSize=12;" vertex="1" parent="1">
          <mxGeometry x="131" y="54" width="780" height="410" as="geometry" />
        </mxCell>
        <mxCell id="PxqCbL-2LZfQ2RbIi71h-82" value="" style="rounded=1;whiteSpace=wrap;html=1;fontSize=12;strokeColor=#9673a6;strokeWidth=2;fillColor=#EEE2F5;gradientColor=none;" vertex="1" parent="PxqCbL-2LZfQ2RbIi71h-80">
          <mxGeometry x="-11" y="24" width="801" height="126" as="geometry" />
        </mxCell>
        <mxCell id="PxqCbL-2LZfQ2RbIi71h-83" value="" style="rounded=1;whiteSpace=wrap;html=1;fontSize=12;strokeColor=#82b366;strokeWidth=2;fillColor=#d5e8d4;" vertex="1" parent="PxqCbL-2LZfQ2RbIi71h-80">
          <mxGeometry x="-11" y="248" width="801" height="126" as="geometry" />
        </mxCell>
        <mxCell id="PxqCbL-2LZfQ2RbIi71h-59" style="edgeStyle=orthogonalEdgeStyle;rounded=0;orthogonalLoop=1;jettySize=auto;html=1;exitX=1;exitY=0.25;exitDx=0;exitDy=0;entryX=0.5;entryY=1;entryDx=0;entryDy=0;fontSize=12;" edge="1" parent="1" source="PxqCbL-2LZfQ2RbIi71h-40" target="PxqCbL-2LZfQ2RbIi71h-44">
          <mxGeometry relative="1" as="geometry" />
        </mxCell>
        <mxCell id="PxqCbL-2LZfQ2RbIi71h-40" value="" style="shape=step;perimeter=stepPerimeter;whiteSpace=wrap;html=1;fixedSize=1;fontSize=12;strokeColor=#CDA2BE;strokeWidth=2;fillColor=none;" vertex="1" parent="1">
          <mxGeometry x="51" y="78" width="50" height="350" as="geometry" />
        </mxCell>
        <mxCell id="PxqCbL-2LZfQ2RbIi71h-41" value="Clients" style="text;html=1;align=center;verticalAlign=middle;resizable=0;points=[];autosize=1;strokeColor=none;fillColor=none;fontSize=12;rotation=-90;" vertex="1" parent="1">
          <mxGeometry x="31" y="239" width="50" height="20" as="geometry" />
        </mxCell>
        <mxCell id="PxqCbL-2LZfQ2RbIi71h-62" style="edgeStyle=orthogonalEdgeStyle;rounded=0;orthogonalLoop=1;jettySize=auto;html=1;exitX=0;exitY=0.25;exitDx=0;exitDy=0;entryX=0.75;entryY=0;entryDx=0;entryDy=0;fontSize=12;" edge="1" parent="1" source="PxqCbL-2LZfQ2RbIi71h-44" target="PxqCbL-2LZfQ2RbIi71h-40">
          <mxGeometry relative="1" as="geometry" />
        </mxCell>
        <mxCell id="PxqCbL-2LZfQ2RbIi71h-63" value="&amp;nbsp;cmd ACK&amp;nbsp;" style="edgeLabel;html=1;align=center;verticalAlign=middle;resizable=0;points=[];fontSize=12;" vertex="1" connectable="0" parent="PxqCbL-2LZfQ2RbIi71h-62">
          <mxGeometry x="-0.2598" y="1" relative="1" as="geometry">
            <mxPoint as="offset" />
          </mxGeometry>
        </mxCell>
        <mxCell id="PxqCbL-2LZfQ2RbIi71h-64" style="edgeStyle=orthogonalEdgeStyle;rounded=0;orthogonalLoop=1;jettySize=auto;html=1;exitX=1;exitY=0.5;exitDx=0;exitDy=0;entryX=0;entryY=0.5;entryDx=0;entryDy=0;fontSize=12;" edge="1" parent="1" source="PxqCbL-2LZfQ2RbIi71h-44" target="PxqCbL-2LZfQ2RbIi71h-45">
          <mxGeometry relative="1" as="geometry" />
        </mxCell>
        <mxCell id="PxqCbL-2LZfQ2RbIi71h-44" value="Command&lt;br&gt;" style="aspect=fixed;perimeter=ellipsePerimeter;html=1;align=center;shadow=0;dashed=0;fontColor=#4277BB;labelBackgroundColor=#ffffff;fontSize=12;spacingTop=3;image;image=img/lib/ibm/devops/build_test.svg;strokeColor=#CDA2BE;strokeWidth=2;fillColor=none;" vertex="1" parent="1">
          <mxGeometry x="221" y="94" width="60" height="60" as="geometry" />
        </mxCell>
        <mxCell id="PxqCbL-2LZfQ2RbIi71h-65" style="edgeStyle=orthogonalEdgeStyle;rounded=0;orthogonalLoop=1;jettySize=auto;html=1;exitX=1;exitY=0.5;exitDx=0;exitDy=0;entryX=0;entryY=0.5;entryDx=0;entryDy=0;fontSize=12;" edge="1" parent="1" source="PxqCbL-2LZfQ2RbIi71h-45" target="PxqCbL-2LZfQ2RbIi71h-46">
          <mxGeometry relative="1" as="geometry" />
        </mxCell>
        <mxCell id="PxqCbL-2LZfQ2RbIi71h-45" value="Command&amp;nbsp;&lt;br&gt;Handler" style="aspect=fixed;perimeter=ellipsePerimeter;html=1;align=center;shadow=0;dashed=0;fontColor=#4277BB;labelBackgroundColor=#ffffff;fontSize=12;spacingTop=3;image;image=img/lib/ibm/applications/application_logic.svg;strokeColor=#CDA2BE;strokeWidth=2;fillColor=none;" vertex="1" parent="1">
          <mxGeometry x="361" y="94" width="60" height="60" as="geometry" />
        </mxCell>
        <mxCell id="PxqCbL-2LZfQ2RbIi71h-66" style="edgeStyle=orthogonalEdgeStyle;rounded=0;orthogonalLoop=1;jettySize=auto;html=1;exitX=1;exitY=0.5;exitDx=0;exitDy=0;entryX=0;entryY=0.5;entryDx=0;entryDy=0;fontSize=12;" edge="1" parent="1" source="PxqCbL-2LZfQ2RbIi71h-46" target="PxqCbL-2LZfQ2RbIi71h-49">
          <mxGeometry relative="1" as="geometry" />
        </mxCell>
        <mxCell id="PxqCbL-2LZfQ2RbIi71h-46" value="Write Model&lt;br&gt;" style="aspect=fixed;perimeter=ellipsePerimeter;html=1;align=center;shadow=0;dashed=0;fontColor=#4277BB;labelBackgroundColor=#ffffff;fontSize=12;spacingTop=3;image;image=img/lib/ibm/data/model.svg;strokeColor=#CDA2BE;strokeWidth=2;fillColor=none;" vertex="1" parent="1">
          <mxGeometry x="521" y="94" width="60" height="60" as="geometry" />
        </mxCell>
        <mxCell id="PxqCbL-2LZfQ2RbIi71h-70" style="edgeStyle=orthogonalEdgeStyle;rounded=0;orthogonalLoop=1;jettySize=auto;html=1;exitX=1;exitY=0.5;exitDx=0;exitDy=0;fontSize=12;" edge="1" parent="1" source="PxqCbL-2LZfQ2RbIi71h-49" target="PxqCbL-2LZfQ2RbIi71h-50">
          <mxGeometry relative="1" as="geometry" />
        </mxCell>
        <mxCell id="PxqCbL-2LZfQ2RbIi71h-49" value="Write DB&lt;br&gt;" style="aspect=fixed;perimeter=ellipsePerimeter;html=1;align=center;shadow=0;dashed=0;fontColor=#4277BB;labelBackgroundColor=#ffffff;fontSize=12;spacingTop=3;image;image=img/lib/ibm/data/data_services.svg;strokeColor=#CDA2BE;strokeWidth=2;fillColor=none;" vertex="1" parent="1">
          <mxGeometry x="661" y="94" width="60" height="60" as="geometry" />
        </mxCell>
        <mxCell id="PxqCbL-2LZfQ2RbIi71h-71" style="edgeStyle=orthogonalEdgeStyle;rounded=0;orthogonalLoop=1;jettySize=auto;html=1;exitX=0.5;exitY=1;exitDx=0;exitDy=0;exitPerimeter=0;entryX=1;entryY=0.5;entryDx=0;entryDy=0;fontSize=12;" edge="1" parent="1" source="PxqCbL-2LZfQ2RbIi71h-50" target="PxqCbL-2LZfQ2RbIi71h-55">
          <mxGeometry relative="1" as="geometry" />
        </mxCell>
        <mxCell id="PxqCbL-2LZfQ2RbIi71h-50" value="" style="sketch=0;points=[[0,0,0],[0.25,0,0],[0.5,0,0],[0.75,0,0],[1,0,0],[0,1,0],[0.25,1,0],[0.5,1,0],[0.75,1,0],[1,1,0],[0,0.25,0],[0,0.5,0],[0,0.75,0],[1,0.25,0],[1,0.5,0],[1,0.75,0]];outlineConnect=0;fontColor=#232F3E;gradientColor=#FF4F8B;gradientDirection=north;fillColor=#BC1356;strokeColor=#ffffff;dashed=0;verticalLabelPosition=bottom;verticalAlign=top;align=center;html=1;fontSize=12;fontStyle=0;aspect=fixed;shape=mxgraph.aws4.resourceIcon;resIcon=mxgraph.aws4.eventbridge;" vertex="1" parent="1">
          <mxGeometry x="801" y="214" width="78" height="78" as="geometry" />
        </mxCell>
        <mxCell id="PxqCbL-2LZfQ2RbIi71h-58" style="edgeStyle=orthogonalEdgeStyle;rounded=0;orthogonalLoop=1;jettySize=auto;html=1;exitX=0.5;exitY=0;exitDx=0;exitDy=0;entryX=1;entryY=0.75;entryDx=0;entryDy=0;fontSize=12;" edge="1" parent="1" source="PxqCbL-2LZfQ2RbIi71h-52" target="PxqCbL-2LZfQ2RbIi71h-40">
          <mxGeometry relative="1" as="geometry" />
        </mxCell>
        <mxCell id="PxqCbL-2LZfQ2RbIi71h-52" value="Query" style="aspect=fixed;perimeter=ellipsePerimeter;html=1;align=center;shadow=0;dashed=0;fontColor=#4277BB;labelBackgroundColor=#ffffff;fontSize=12;spacingTop=3;image;image=img/lib/ibm/devops/build_test.svg;strokeColor=#CDA2BE;strokeWidth=2;fillColor=none;" vertex="1" parent="1">
          <mxGeometry x="221" y="335" width="60" height="60" as="geometry" />
        </mxCell>
        <mxCell id="PxqCbL-2LZfQ2RbIi71h-67" style="edgeStyle=orthogonalEdgeStyle;rounded=0;orthogonalLoop=1;jettySize=auto;html=1;exitX=0;exitY=0.5;exitDx=0;exitDy=0;entryX=1;entryY=0.5;entryDx=0;entryDy=0;fontSize=12;" edge="1" parent="1" source="PxqCbL-2LZfQ2RbIi71h-53" target="PxqCbL-2LZfQ2RbIi71h-52">
          <mxGeometry relative="1" as="geometry" />
        </mxCell>
        <mxCell id="PxqCbL-2LZfQ2RbIi71h-53" value="Query&lt;br&gt;Handler" style="aspect=fixed;perimeter=ellipsePerimeter;html=1;align=center;shadow=0;dashed=0;fontColor=#4277BB;labelBackgroundColor=#ffffff;fontSize=12;spacingTop=3;image;image=img/lib/ibm/applications/application_logic.svg;strokeColor=#CDA2BE;strokeWidth=2;fillColor=none;" vertex="1" parent="1">
          <mxGeometry x="361" y="335" width="60" height="60" as="geometry" />
        </mxCell>
        <mxCell id="PxqCbL-2LZfQ2RbIi71h-68" style="edgeStyle=orthogonalEdgeStyle;rounded=0;orthogonalLoop=1;jettySize=auto;html=1;exitX=0;exitY=0.5;exitDx=0;exitDy=0;entryX=1;entryY=0.5;entryDx=0;entryDy=0;fontSize=12;" edge="1" parent="1" source="PxqCbL-2LZfQ2RbIi71h-54" target="PxqCbL-2LZfQ2RbIi71h-53">
          <mxGeometry relative="1" as="geometry" />
        </mxCell>
        <mxCell id="PxqCbL-2LZfQ2RbIi71h-54" value="Read Model" style="aspect=fixed;perimeter=ellipsePerimeter;html=1;align=center;shadow=0;dashed=0;fontColor=#4277BB;labelBackgroundColor=#ffffff;fontSize=12;spacingTop=3;image;image=img/lib/ibm/data/model.svg;strokeColor=#CDA2BE;strokeWidth=2;fillColor=none;" vertex="1" parent="1">
          <mxGeometry x="521" y="335" width="60" height="60" as="geometry" />
        </mxCell>
        <mxCell id="PxqCbL-2LZfQ2RbIi71h-69" style="edgeStyle=orthogonalEdgeStyle;rounded=0;orthogonalLoop=1;jettySize=auto;html=1;exitX=0;exitY=0.5;exitDx=0;exitDy=0;fontSize=12;" edge="1" parent="1" source="PxqCbL-2LZfQ2RbIi71h-55" target="PxqCbL-2LZfQ2RbIi71h-54">
          <mxGeometry relative="1" as="geometry" />
        </mxCell>
        <mxCell id="PxqCbL-2LZfQ2RbIi71h-55" value="Read&amp;nbsp;DB" style="aspect=fixed;perimeter=ellipsePerimeter;html=1;align=center;shadow=0;dashed=0;fontColor=#4277BB;labelBackgroundColor=#ffffff;fontSize=12;spacingTop=3;image;image=img/lib/ibm/data/data_services.svg;strokeColor=#CDA2BE;strokeWidth=2;fillColor=none;" vertex="1" parent="1">
          <mxGeometry x="661" y="335" width="60" height="60" as="geometry" />
        </mxCell>
        <mxCell id="PxqCbL-2LZfQ2RbIi71h-72" value="Events" style="text;html=1;align=center;verticalAlign=middle;resizable=0;points=[];autosize=1;strokeColor=none;fillColor=none;fontSize=12;" vertex="1" parent="1">
          <mxGeometry x="736" y="244" width="50" height="20" as="geometry" />
        </mxCell>
        <mxCell id="PxqCbL-2LZfQ2RbIi71h-86" value="Text" style="text;html=1;strokeColor=none;fillColor=none;align=center;verticalAlign=middle;whiteSpace=wrap;rounded=0;fontSize=12;" vertex="1" parent="1">
          <mxGeometry x="530" y="400" width="60" height="30" as="geometry" />
        </mxCell>
        <mxCell id="PxqCbL-2LZfQ2RbIi71h-89" value="&lt;h1&gt;&lt;span&gt;CQRS&lt;br&gt;&lt;/span&gt;&lt;br&gt;&lt;span style=&quot;font-size: 12px ; font-weight: normal&quot;&gt;This design pattern is used when there&#39;s a need to have different data models for Read and Write. &lt;/span&gt;&lt;br&gt;&lt;span style=&quot;font-size: 12px ; font-weight: normal&quot;&gt;&lt;ul&gt;&lt;li&gt;&lt;span style=&quot;font-size: 12px ; font-weight: normal&quot;&gt;&amp;nbsp;This requirements may come due to complex validations when writing data or extra &lt;/span&gt;&lt;span style=&quot;font-size: 12px ; font-weight: 400&quot;&gt;process&lt;/span&gt;&lt;span style=&quot;font-size: 12px ; font-weight: normal&quot;&gt;&amp;nbsp;of data on read, may lead to hard to &lt;/span&gt;&lt;span style=&quot;font-size: 12px ; font-weight: 400&quot;&gt;maintain&lt;/span&gt;&lt;span style=&quot;font-size: 12px ; font-weight: normal&quot;&gt;&amp;nbsp;data model. A &lt;/span&gt;&lt;span style=&quot;font-size: 12px ; font-weight: 400&quot;&gt;separation&lt;/span&gt;&lt;span style=&quot;font-size: 12px ; font-weight: normal&quot;&gt;&amp;nbsp;into command and queries can reduce the complexity of the &quot;single model&quot;.&lt;ul&gt;&lt;br&gt;&lt;/ul&gt;&lt;/span&gt;&lt;/li&gt;&lt;li&gt;&lt;span style=&quot;font-size: 12px ; font-weight: normal&quot;&gt;&amp;nbsp;Other reason maybe that the producer and consumer of the data, may be diferent and have diferent requirements regarding the presentation, once more a separation into commands and queries will simplify the data models.&lt;/span&gt;&lt;/li&gt;&lt;/ul&gt;&lt;/span&gt;&lt;/h1&gt;" style="text;html=1;spacing=5;spacingTop=-20;whiteSpace=wrap;overflow=hidden;rounded=0;fillColor=#fff2cc;strokeColor=#d6b656;" vertex="1" parent="1">
          <mxGeometry x="70" y="500" width="790" height="210" as="geometry" />
        </mxCell>
      </root>
    </mxGraphModel>
  </diagram>
</mxfile>
